<?xml version="1.0" encoding="UTF-8" standalone="no"?>
<!DOCTYPE svg PUBLIC "-//W3C//DTD SVG 1.1//EN"
 "http://www.w3.org/Graphics/SVG/1.1/DTD/svg11.dtd">
<!-- Generated by graphviz version 2.43.0 (0)
 -->
<!-- Title: %3 Pages: 1 -->
<svg width="943pt" height="378pt"
 viewBox="0.00 0.00 943.00 378.00" xmlns="http://www.w3.org/2000/svg" xmlns:xlink="http://www.w3.org/1999/xlink">
<g id="graph0" class="graph" transform="scale(1 1) rotate(0) translate(4 374)">
<title>%3</title>
<polygon fill="#f5e6cc" stroke="transparent" points="-4,4 -4,-374 939,-374 939,4 -4,4"/>
<g id="clust1" class="cluster">
<title>cluster_Token_array</title>
<polygon fill="#f5e6cc" stroke="#f5e6cc" points="8,-8 8,-215 927,-215 927,-8 8,-8"/>
<text text-anchor="middle" x="467.5" y="-192.6" font-family="Helvetica,sans-Serif" font-size="23.00">Token array</text>
</g>
<g id="clust2" class="cluster">
<title>cluster_token_0</title>
<polygon fill="#f5e6cc" stroke="#f5e6cc" points="16,-16 16,-174 223,-174 223,-16 16,-16"/>
<text text-anchor="middle" x="119.5" y="-157.2" font-family="Helvetica,sans-Serif" font-size="16.00">0</text>
</g>
<g id="clust3" class="cluster">
<title>cluster_token_1</title>
<polygon fill="#f5e6cc" stroke="#f5e6cc" points="243,-16 243,-174 438,-174 438,-16 243,-16"/>
<text text-anchor="middle" x="340.5" y="-157.2" font-family="Helvetica,sans-Serif" font-size="16.00">1</text>
</g>
<g id="clust4" class="cluster">
<title>cluster_token_2</title>
<polygon fill="#f5e6cc" stroke="#f5e6cc" points="458,-16 458,-174 653,-174 653,-16 458,-16"/>
<text text-anchor="middle" x="555.5" y="-157.2" font-family="Helvetica,sans-Serif" font-size="16.00">2</text>
</g>
<g id="clust5" class="cluster">
<title>cluster_token_3</title>
<polygon fill="#f5e6cc" stroke="#f5e6cc" points="673,-16 673,-174 919,-174 919,-16 673,-16"/>
<text text-anchor="middle" x="796" y="-157.2" font-family="Helvetica,sans-Serif" font-size="16.00">3</text>
</g>
<g id="clust6" class="cluster">
<title>cluster_Name_table</title>
<polygon fill="#f5e6cc" stroke="#f5e6cc" points="9.5,-223 9.5,-362 229.5,-362 229.5,-223 9.5,-223"/>
<text text-anchor="middle" x="119.5" y="-339.6" font-family="Helvetica,sans-Serif" font-size="23.00">Name Table</text>
</g>
<g id="clust7" class="cluster">
<title>cluster_0</title>
<polygon fill="#f5e6cc" stroke="#f5e6cc" points="17.5,-231 17.5,-321 221.5,-321 221.5,-231 17.5,-231"/>
<text text-anchor="middle" x="119.5" y="-304.2" font-family="Helvetica,sans-Serif" font-size="16.00">0</text>
</g>
<!-- elem_token_0 -->
<g id="node1" class="node">
<title>elem_token_0</title>
<path fill="#fccd04" stroke="black" d="M36,-24.5C36,-24.5 203,-24.5 203,-24.5 209,-24.5 215,-30.5 215,-36.5 215,-36.5 215,-127.5 215,-127.5 215,-133.5 209,-139.5 203,-139.5 203,-139.5 36,-139.5 36,-139.5 30,-139.5 24,-133.5 24,-127.5 24,-127.5 24,-36.5 24,-36.5 24,-30.5 30,-24.5 36,-24.5"/>
<text text-anchor="middle" x="119.5" y="-124.3" font-family="Times,serif" font-size="14.00">addr: 0x5772ab4f5500</text>
<polyline fill="none" stroke="black" points="24,-116.5 215,-116.5 "/>
<text text-anchor="middle" x="119.5" y="-101.3" font-family="Times,serif" font-size="14.00">node type = OP</text>
<polyline fill="none" stroke="black" points="24,-93.5 215,-93.5 "/>
<text text-anchor="middle" x="119.5" y="-78.3" font-family="Times,serif" font-size="14.00">value = 17 (&quot;Breakfast&quot;)</text>
<polyline fill="none" stroke="black" points="24,-70.5 215,-70.5 "/>
<text text-anchor="middle" x="119.5" y="-55.3" font-family="Times,serif" font-size="14.00">node left: (nil)</text>
<polyline fill="none" stroke="black" points="24,-47.5 215,-47.5 "/>
<text text-anchor="middle" x="119.5" y="-32.3" font-family="Times,serif" font-size="14.00">node right: (nil)</text>
</g>
<!-- elem_token_1 -->
<g id="node2" class="node">
<title>elem_token_1</title>
<path fill="#a64ac9" stroke="black" d="M263,-24.5C263,-24.5 418,-24.5 418,-24.5 424,-24.5 430,-30.5 430,-36.5 430,-36.5 430,-127.5 430,-127.5 430,-133.5 424,-139.5 418,-139.5 418,-139.5 263,-139.5 263,-139.5 257,-139.5 251,-133.5 251,-127.5 251,-127.5 251,-36.5 251,-36.5 251,-30.5 257,-24.5 263,-24.5"/>
<text text-anchor="middle" x="340.5" y="-124.3" font-family="Times,serif" font-size="14.00">addr: 0x5772ab4f5520</text>
<polyline fill="none" stroke="black" points="251,-116.5 430,-116.5 "/>
<text text-anchor="middle" x="340.5" y="-101.3" font-family="Times,serif" font-size="14.00">node type = ID</text>
<polyline fill="none" stroke="black" points="251,-93.5 430,-93.5 "/>
<text text-anchor="middle" x="340.5" y="-78.3" font-family="Times,serif" font-size="14.00">value = 0 (&quot;damir&quot;)</text>
<polyline fill="none" stroke="black" points="251,-70.5 430,-70.5 "/>
<text text-anchor="middle" x="340.5" y="-55.3" font-family="Times,serif" font-size="14.00">node left: (nil)</text>
<polyline fill="none" stroke="black" points="251,-47.5 430,-47.5 "/>
<text text-anchor="middle" x="340.5" y="-32.3" font-family="Times,serif" font-size="14.00">node right: (nil)</text>
</g>
<!-- elem_token_0&#45;&gt;elem_token_1 -->
<g id="edge1" class="edge">
<title>elem_token_0&#45;&gt;elem_token_1</title>
<path fill="none" stroke="black" d="M215.28,-82C223.67,-82 232.17,-82 240.58,-82"/>
<polygon fill="black" stroke="black" points="240.79,-85.5 250.79,-82 240.79,-78.5 240.79,-85.5"/>
</g>
<!-- elem_token_2 -->
<g id="node3" class="node">
<title>elem_token_2</title>
<path fill="#fccd04" stroke="black" d="M478,-24.5C478,-24.5 633,-24.5 633,-24.5 639,-24.5 645,-30.5 645,-36.5 645,-36.5 645,-127.5 645,-127.5 645,-133.5 639,-139.5 633,-139.5 633,-139.5 478,-139.5 478,-139.5 472,-139.5 466,-133.5 466,-127.5 466,-127.5 466,-36.5 466,-36.5 466,-30.5 472,-24.5 478,-24.5"/>
<text text-anchor="middle" x="555.5" y="-124.3" font-family="Times,serif" font-size="14.00">addr: 0x5772ab4f5540</text>
<polyline fill="none" stroke="black" points="466,-116.5 645,-116.5 "/>
<text text-anchor="middle" x="555.5" y="-101.3" font-family="Times,serif" font-size="14.00">node type = OP</text>
<polyline fill="none" stroke="black" points="466,-93.5 645,-93.5 "/>
<text text-anchor="middle" x="555.5" y="-78.3" font-family="Times,serif" font-size="14.00">value = 21 (&quot;cringe&quot;)</text>
<polyline fill="none" stroke="black" points="466,-70.5 645,-70.5 "/>
<text text-anchor="middle" x="555.5" y="-55.3" font-family="Times,serif" font-size="14.00">node left: (nil)</text>
<polyline fill="none" stroke="black" points="466,-47.5 645,-47.5 "/>
<text text-anchor="middle" x="555.5" y="-32.3" font-family="Times,serif" font-size="14.00">node right: (nil)</text>
</g>
<!-- elem_token_1&#45;&gt;elem_token_2 -->
<g id="edge2" class="edge">
<title>elem_token_1&#45;&gt;elem_token_2</title>
<path fill="none" stroke="black" d="M430.29,-82C438.65,-82 447.16,-82 455.6,-82"/>
<polygon fill="black" stroke="black" points="455.86,-85.5 465.86,-82 455.85,-78.5 455.86,-85.5"/>
</g>
<!-- elem_token_3 -->
<g id="node4" class="node">
<title>elem_token_3</title>
<path fill="#fccd04" stroke="black" d="M693,-24.5C693,-24.5 899,-24.5 899,-24.5 905,-24.5 911,-30.5 911,-36.5 911,-36.5 911,-127.5 911,-127.5 911,-133.5 905,-139.5 899,-139.5 899,-139.5 693,-139.5 693,-139.5 687,-139.5 681,-133.5 681,-127.5 681,-127.5 681,-36.5 681,-36.5 681,-30.5 687,-24.5 693,-24.5"/>
<text text-anchor="middle" x="796" y="-124.3" font-family="Times,serif" font-size="14.00">addr: 0x5772ab4f5560</text>
<polyline fill="none" stroke="black" points="681,-116.5 911,-116.5 "/>
<text text-anchor="middle" x="796" y="-101.3" font-family="Times,serif" font-size="14.00">node type = OP</text>
<polyline fill="none" stroke="black" points="681,-93.5 911,-93.5 "/>
<text text-anchor="middle" x="796" y="-78.3" font-family="Times,serif" font-size="14.00">value = 18 (&quot;DIYA&#45;kontora...&quot;)</text>
<polyline fill="none" stroke="black" points="681,-70.5 911,-70.5 "/>
<text text-anchor="middle" x="796" y="-55.3" font-family="Times,serif" font-size="14.00">node left: (nil)</text>
<polyline fill="none" stroke="black" points="681,-47.5 911,-47.5 "/>
<text text-anchor="middle" x="796" y="-32.3" font-family="Times,serif" font-size="14.00">node right: (nil)</text>
</g>
<!-- elem_token_2&#45;&gt;elem_token_3 -->
<g id="edge3" class="edge">
<title>elem_token_2&#45;&gt;elem_token_3</title>
<path fill="none" stroke="black" d="M645.31,-82C653.59,-82 662.08,-82 670.61,-82"/>
<polygon fill="black" stroke="black" points="670.62,-85.5 680.62,-82 670.62,-78.5 670.62,-85.5"/>
</g>
<!-- elem_0 -->
<g id="node5" class="node">
<title>elem_0</title>
<path fill="#a64ac9" stroke="black" d="M37.5,-240C37.5,-240 201.5,-240 201.5,-240 207.5,-240 213.5,-246 213.5,-252 213.5,-252 213.5,-274 213.5,-274 213.5,-280 207.5,-286 201.5,-286 201.5,-286 37.5,-286 37.5,-286 31.5,-286 25.5,-280 25.5,-274 25.5,-274 25.5,-252 25.5,-252 25.5,-246 31.5,-240 37.5,-240"/>
<text text-anchor="middle" x="119.5" y="-270.8" font-family="Times,serif" font-size="14.00">addr = 0x7843906ff010</text>
<polyline fill="none" stroke="black" points="25.5,-263 213.5,-263 "/>
<text text-anchor="middle" x="119.5" y="-247.8" font-family="Times,serif" font-size="14.00">ID = &quot;damir&quot;</text>
</g>
</g>
</svg>
